<mxfile host="app.diagrams.net" modified="2024-06-04T23:59:13.971Z" agent="Mozilla/5.0 (Windows NT 10.0; Win64; x64) AppleWebKit/537.36 (KHTML, like Gecko) Chrome/125.0.0.0 Safari/537.36" version="24.4.13" etag="h-JHwdk4GQ9NqKxorxvG" type="device">
  <diagram id="-k8rxCibC2wym0x23jem" name="PÃ¡gina-1">
    <mxGraphModel dx="1768" dy="2208" grid="1" gridSize="10" guides="1" tooltips="1" connect="1" arrows="1" fold="1" page="1" pageScale="1" pageWidth="827" pageHeight="1169" math="0" shadow="0">
      <root>
        <mxCell id="0" />
        <mxCell id="1" parent="0" />
        <mxCell id="nTK5DwB5Zi0l0sdWwo5K-1" value="Socio" style="shape=umlActor;verticalLabelPosition=bottom;verticalAlign=top;html=1;outlineConnect=0;" vertex="1" parent="1">
          <mxGeometry x="50" y="60" width="30" height="60" as="geometry" />
        </mxCell>
        <mxCell id="nTK5DwB5Zi0l0sdWwo5K-3" value="Usuario" style="shape=umlActor;verticalLabelPosition=bottom;verticalAlign=top;html=1;outlineConnect=0;" vertex="1" parent="1">
          <mxGeometry x="50" y="170" width="30" height="60" as="geometry" />
        </mxCell>
        <mxCell id="nTK5DwB5Zi0l0sdWwo5K-4" value="Bibliotecario" style="shape=umlActor;verticalLabelPosition=bottom;verticalAlign=top;html=1;outlineConnect=0;" vertex="1" parent="1">
          <mxGeometry x="50" y="270" width="30" height="60" as="geometry" />
        </mxCell>
        <mxCell id="nTK5DwB5Zi0l0sdWwo5K-6" value="Usuario" style="shape=umlActor;verticalLabelPosition=bottom;verticalAlign=top;html=1;outlineConnect=0;" vertex="1" parent="1">
          <mxGeometry x="40" y="-260" width="30" height="60" as="geometry" />
        </mxCell>
        <mxCell id="nTK5DwB5Zi0l0sdWwo5K-7" value="Alta Usuario" style="ellipse;whiteSpace=wrap;html=1;" vertex="1" parent="1">
          <mxGeometry x="200" y="-250" width="80" height="40" as="geometry" />
        </mxCell>
        <mxCell id="nTK5DwB5Zi0l0sdWwo5K-8" value="Validar identidad" style="ellipse;whiteSpace=wrap;html=1;" vertex="1" parent="1">
          <mxGeometry x="210" y="-120" width="80" height="40" as="geometry" />
        </mxCell>
        <mxCell id="nTK5DwB5Zi0l0sdWwo5K-9" value="&amp;lt;&amp;lt;Incluir&amp;gt;&amp;gt;" style="html=1;verticalAlign=bottom;endArrow=open;dashed=1;endSize=8;curved=0;rounded=0;exitX=0.5;exitY=1;exitDx=0;exitDy=0;entryX=0.39;entryY=-0.033;entryDx=0;entryDy=0;entryPerimeter=0;" edge="1" parent="1" source="nTK5DwB5Zi0l0sdWwo5K-7" target="nTK5DwB5Zi0l0sdWwo5K-8">
          <mxGeometry x="0.356" y="9" relative="1" as="geometry">
            <mxPoint x="300" y="-140" as="sourcePoint" />
            <mxPoint x="220" y="-140" as="targetPoint" />
            <mxPoint as="offset" />
          </mxGeometry>
        </mxCell>
        <mxCell id="nTK5DwB5Zi0l0sdWwo5K-13" value="" style="endArrow=none;html=1;rounded=0;" edge="1" parent="1" source="nTK5DwB5Zi0l0sdWwo5K-6">
          <mxGeometry width="50" height="50" relative="1" as="geometry">
            <mxPoint x="150" y="-180" as="sourcePoint" />
            <mxPoint x="200" y="-230" as="targetPoint" />
          </mxGeometry>
        </mxCell>
        <mxCell id="nTK5DwB5Zi0l0sdWwo5K-14" value="Bibliotecario" style="shape=umlActor;verticalLabelPosition=bottom;verticalAlign=top;html=1;outlineConnect=0;" vertex="1" parent="1">
          <mxGeometry x="560" y="-270" width="30" height="60" as="geometry" />
        </mxCell>
        <mxCell id="nTK5DwB5Zi0l0sdWwo5K-15" value="Cambio datos personales" style="ellipse;whiteSpace=wrap;html=1;" vertex="1" parent="1">
          <mxGeometry x="40" y="-130" width="100" height="50" as="geometry" />
        </mxCell>
        <mxCell id="nTK5DwB5Zi0l0sdWwo5K-16" value="&amp;lt;&amp;lt;Incluir&amp;gt;&amp;gt;" style="html=1;verticalAlign=bottom;endArrow=open;dashed=1;endSize=8;curved=0;rounded=0;exitX=1;exitY=0.5;exitDx=0;exitDy=0;entryX=0;entryY=0.5;entryDx=0;entryDy=0;" edge="1" parent="1" source="nTK5DwB5Zi0l0sdWwo5K-15" target="nTK5DwB5Zi0l0sdWwo5K-8">
          <mxGeometry x="-0.0072" relative="1" as="geometry">
            <mxPoint x="190" y="-144.5" as="sourcePoint" />
            <mxPoint x="191" y="-55.5" as="targetPoint" />
            <mxPoint as="offset" />
          </mxGeometry>
        </mxCell>
        <mxCell id="nTK5DwB5Zi0l0sdWwo5K-17" value="" style="endArrow=none;html=1;rounded=0;" edge="1" parent="1" source="nTK5DwB5Zi0l0sdWwo5K-15">
          <mxGeometry width="50" height="50" relative="1" as="geometry">
            <mxPoint x="20" y="-140" as="sourcePoint" />
            <mxPoint x="70" y="-180" as="targetPoint" />
          </mxGeometry>
        </mxCell>
        <mxCell id="nTK5DwB5Zi0l0sdWwo5K-18" value="Prestamo libro" style="ellipse;whiteSpace=wrap;html=1;" vertex="1" parent="1">
          <mxGeometry x="360" y="-250" width="90" height="40" as="geometry" />
        </mxCell>
        <mxCell id="nTK5DwB5Zi0l0sdWwo5K-19" value="&amp;lt;&amp;lt;Extender&amp;gt;&amp;gt;" style="html=1;verticalAlign=bottom;endArrow=open;dashed=1;endSize=8;curved=0;rounded=0;exitX=0.5;exitY=1;exitDx=0;exitDy=0;entryX=1;entryY=0.5;entryDx=0;entryDy=0;" edge="1" parent="1" target="nTK5DwB5Zi0l0sdWwo5K-7">
          <mxGeometry x="-0.0127" y="-20" relative="1" as="geometry">
            <mxPoint x="359" y="-230" as="sourcePoint" />
            <mxPoint x="360" y="-141" as="targetPoint" />
            <mxPoint as="offset" />
          </mxGeometry>
        </mxCell>
        <mxCell id="nTK5DwB5Zi0l0sdWwo5K-20" value="" style="endArrow=none;html=1;rounded=0;exitX=1;exitY=0.5;exitDx=0;exitDy=0;" edge="1" parent="1" source="nTK5DwB5Zi0l0sdWwo5K-18">
          <mxGeometry width="50" height="50" relative="1" as="geometry">
            <mxPoint x="510" y="-200" as="sourcePoint" />
            <mxPoint x="550" y="-230" as="targetPoint" />
          </mxGeometry>
        </mxCell>
        <mxCell id="nTK5DwB5Zi0l0sdWwo5K-21" value="Bibliotecario" style="shape=umlActor;verticalLabelPosition=bottom;verticalAlign=top;html=1;outlineConnect=0;" vertex="1" parent="1">
          <mxGeometry x="40" y="-574" width="30" height="60" as="geometry" />
        </mxCell>
        <mxCell id="nTK5DwB5Zi0l0sdWwo5K-22" value="Alta libro" style="ellipse;whiteSpace=wrap;html=1;" vertex="1" parent="1">
          <mxGeometry x="170" y="-584" width="90" height="40" as="geometry" />
        </mxCell>
        <mxCell id="nTK5DwB5Zi0l0sdWwo5K-23" value="Validar datos" style="ellipse;whiteSpace=wrap;html=1;" vertex="1" parent="1">
          <mxGeometry x="175" y="-450" width="80" height="40" as="geometry" />
        </mxCell>
        <mxCell id="nTK5DwB5Zi0l0sdWwo5K-24" value="Ver informacion&amp;nbsp;" style="ellipse;whiteSpace=wrap;html=1;" vertex="1" parent="1">
          <mxGeometry x="25" y="-430" width="80" height="40" as="geometry" />
        </mxCell>
        <mxCell id="nTK5DwB5Zi0l0sdWwo5K-25" value="&amp;lt;&amp;lt;Incluir&amp;gt;&amp;gt;" style="html=1;verticalAlign=bottom;endArrow=open;dashed=1;endSize=8;curved=0;rounded=0;exitX=1;exitY=0.5;exitDx=0;exitDy=0;entryX=0;entryY=0.5;entryDx=0;entryDy=0;" edge="1" parent="1" source="nTK5DwB5Zi0l0sdWwo5K-24">
          <mxGeometry x="-0.0072" relative="1" as="geometry">
            <mxPoint x="110" y="-435" as="sourcePoint" />
            <mxPoint x="180" y="-430" as="targetPoint" />
            <mxPoint as="offset" />
          </mxGeometry>
        </mxCell>
        <mxCell id="nTK5DwB5Zi0l0sdWwo5K-26" value="&amp;lt;&amp;lt;Incluir&amp;gt;&amp;gt;" style="html=1;verticalAlign=bottom;endArrow=open;dashed=1;endSize=8;curved=0;rounded=0;exitX=0.5;exitY=1;exitDx=0;exitDy=0;entryX=0.39;entryY=-0.033;entryDx=0;entryDy=0;entryPerimeter=0;" edge="1" parent="1">
          <mxGeometry x="0.356" y="9" relative="1" as="geometry">
            <mxPoint x="210" y="-539" as="sourcePoint" />
            <mxPoint x="211" y="-450" as="targetPoint" />
            <mxPoint as="offset" />
          </mxGeometry>
        </mxCell>
        <mxCell id="nTK5DwB5Zi0l0sdWwo5K-27" value="" style="endArrow=none;html=1;rounded=0;" edge="1" parent="1" source="nTK5DwB5Zi0l0sdWwo5K-24">
          <mxGeometry width="50" height="50" relative="1" as="geometry">
            <mxPoint x="54.379999999999995" y="-360" as="sourcePoint" />
            <mxPoint x="54.379999999999995" y="-490" as="targetPoint" />
          </mxGeometry>
        </mxCell>
        <mxCell id="nTK5DwB5Zi0l0sdWwo5K-28" value="" style="endArrow=none;html=1;rounded=0;" edge="1" parent="1">
          <mxGeometry width="50" height="50" relative="1" as="geometry">
            <mxPoint x="70" y="-564.63" as="sourcePoint" />
            <mxPoint x="170" y="-565" as="targetPoint" />
          </mxGeometry>
        </mxCell>
        <mxCell id="nTK5DwB5Zi0l0sdWwo5K-29" value="Usuario" style="shape=umlActor;verticalLabelPosition=bottom;verticalAlign=top;html=1;outlineConnect=0;" vertex="1" parent="1">
          <mxGeometry x="50" y="-990" width="30" height="60" as="geometry" />
        </mxCell>
        <mxCell id="nTK5DwB5Zi0l0sdWwo5K-30" value="Alta Usuario" style="ellipse;whiteSpace=wrap;html=1;" vertex="1" parent="1">
          <mxGeometry x="210" y="-1110" width="80" height="40" as="geometry" />
        </mxCell>
        <mxCell id="nTK5DwB5Zi0l0sdWwo5K-31" value="Cambio datos personales" style="ellipse;whiteSpace=wrap;html=1;" vertex="1" parent="1">
          <mxGeometry x="200" y="-1040" width="100" height="50" as="geometry" />
        </mxCell>
        <mxCell id="nTK5DwB5Zi0l0sdWwo5K-32" value="Validar identidad" style="ellipse;whiteSpace=wrap;html=1;" vertex="1" parent="1">
          <mxGeometry x="400" y="-960" width="80" height="40" as="geometry" />
        </mxCell>
        <mxCell id="nTK5DwB5Zi0l0sdWwo5K-33" value="Consulta de Multas" style="ellipse;whiteSpace=wrap;html=1;" vertex="1" parent="1">
          <mxGeometry x="200" y="-940" width="100" height="50" as="geometry" />
        </mxCell>
        <mxCell id="nTK5DwB5Zi0l0sdWwo5K-34" value="Renovar membresia" style="ellipse;whiteSpace=wrap;html=1;" vertex="1" parent="1">
          <mxGeometry x="200" y="-860" width="100" height="50" as="geometry" />
        </mxCell>
        <mxCell id="nTK5DwB5Zi0l0sdWwo5K-35" value="" style="endArrow=none;html=1;rounded=0;" edge="1" parent="1">
          <mxGeometry width="50" height="50" relative="1" as="geometry">
            <mxPoint x="90" y="-910" as="sourcePoint" />
            <mxPoint x="205" y="-840" as="targetPoint" />
          </mxGeometry>
        </mxCell>
        <mxCell id="nTK5DwB5Zi0l0sdWwo5K-36" value="" style="endArrow=none;html=1;rounded=0;" edge="1" parent="1">
          <mxGeometry width="50" height="50" relative="1" as="geometry">
            <mxPoint x="80" y="-1000" as="sourcePoint" />
            <mxPoint x="210" y="-1080" as="targetPoint" />
          </mxGeometry>
        </mxCell>
        <mxCell id="nTK5DwB5Zi0l0sdWwo5K-37" value="" style="endArrow=none;html=1;rounded=0;entryX=-0.037;entryY=0.32;entryDx=0;entryDy=0;entryPerimeter=0;" edge="1" parent="1" target="nTK5DwB5Zi0l0sdWwo5K-31">
          <mxGeometry width="50" height="50" relative="1" as="geometry">
            <mxPoint x="80" y="-970" as="sourcePoint" />
            <mxPoint x="200" y="-1040" as="targetPoint" />
          </mxGeometry>
        </mxCell>
        <mxCell id="nTK5DwB5Zi0l0sdWwo5K-38" value="" style="endArrow=none;html=1;rounded=0;entryX=0;entryY=0.5;entryDx=0;entryDy=0;" edge="1" parent="1" target="nTK5DwB5Zi0l0sdWwo5K-33">
          <mxGeometry width="50" height="50" relative="1" as="geometry">
            <mxPoint x="90" y="-940" as="sourcePoint" />
            <mxPoint x="206" y="-1014" as="targetPoint" />
          </mxGeometry>
        </mxCell>
        <mxCell id="nTK5DwB5Zi0l0sdWwo5K-39" value="&amp;lt;&amp;lt;Incluir&amp;gt;&amp;gt;" style="html=1;verticalAlign=bottom;endArrow=open;dashed=1;endSize=8;curved=0;rounded=0;exitX=1;exitY=0.5;exitDx=0;exitDy=0;entryX=0.404;entryY=1.067;entryDx=0;entryDy=0;entryPerimeter=0;" edge="1" parent="1" target="nTK5DwB5Zi0l0sdWwo5K-32">
          <mxGeometry x="0.0622" y="-1" relative="1" as="geometry">
            <mxPoint x="300" y="-840" as="sourcePoint" />
            <mxPoint x="390" y="-930" as="targetPoint" />
            <mxPoint as="offset" />
          </mxGeometry>
        </mxCell>
        <mxCell id="nTK5DwB5Zi0l0sdWwo5K-41" value="&amp;lt;&amp;lt;Incluir&amp;gt;&amp;gt;" style="html=1;verticalAlign=bottom;endArrow=open;dashed=1;endSize=8;curved=0;rounded=0;exitX=1;exitY=0.5;exitDx=0;exitDy=0;entryX=0;entryY=0;entryDx=0;entryDy=0;" edge="1" parent="1" source="nTK5DwB5Zi0l0sdWwo5K-30" target="nTK5DwB5Zi0l0sdWwo5K-32">
          <mxGeometry x="0.0622" y="-1" relative="1" as="geometry">
            <mxPoint x="340" y="-990" as="sourcePoint" />
            <mxPoint x="440" y="-1080" as="targetPoint" />
            <mxPoint as="offset" />
          </mxGeometry>
        </mxCell>
        <mxCell id="nTK5DwB5Zi0l0sdWwo5K-42" value="&amp;lt;&amp;lt;Incluir&amp;gt;&amp;gt;" style="html=1;verticalAlign=bottom;endArrow=open;dashed=1;endSize=8;curved=0;rounded=0;exitX=1;exitY=0.5;exitDx=0;exitDy=0;entryX=0.004;entryY=0.867;entryDx=0;entryDy=0;entryPerimeter=0;" edge="1" parent="1" source="nTK5DwB5Zi0l0sdWwo5K-33" target="nTK5DwB5Zi0l0sdWwo5K-32">
          <mxGeometry x="0.0622" y="-1" relative="1" as="geometry">
            <mxPoint x="310" y="-830" as="sourcePoint" />
            <mxPoint x="442" y="-907" as="targetPoint" />
            <mxPoint as="offset" />
          </mxGeometry>
        </mxCell>
        <mxCell id="nTK5DwB5Zi0l0sdWwo5K-43" value="&amp;lt;&amp;lt;Incluir&amp;gt;&amp;gt;" style="html=1;verticalAlign=bottom;endArrow=open;dashed=1;endSize=8;curved=0;rounded=0;exitX=1;exitY=0.5;exitDx=0;exitDy=0;entryX=0;entryY=0.5;entryDx=0;entryDy=0;" edge="1" parent="1" source="nTK5DwB5Zi0l0sdWwo5K-31" target="nTK5DwB5Zi0l0sdWwo5K-32">
          <mxGeometry x="0.0622" y="-1" relative="1" as="geometry">
            <mxPoint x="310" y="-905" as="sourcePoint" />
            <mxPoint x="410" y="-915" as="targetPoint" />
            <mxPoint as="offset" />
          </mxGeometry>
        </mxCell>
        <mxCell id="nTK5DwB5Zi0l0sdWwo5K-47" value="Usuario" style="shape=umlActor;verticalLabelPosition=bottom;verticalAlign=top;html=1;outlineConnect=0;" vertex="1" parent="1">
          <mxGeometry x="-660" y="-1040" width="30" height="60" as="geometry" />
        </mxCell>
        <mxCell id="nTK5DwB5Zi0l0sdWwo5K-48" value="Validar identidad" style="ellipse;whiteSpace=wrap;html=1;" vertex="1" parent="1">
          <mxGeometry x="-500" y="-870" width="80" height="40" as="geometry" />
        </mxCell>
        <mxCell id="nTK5DwB5Zi0l0sdWwo5K-49" value="pagar multa" style="ellipse;whiteSpace=wrap;html=1;" vertex="1" parent="1">
          <mxGeometry x="-513" y="-1035" width="100" height="50" as="geometry" />
        </mxCell>
        <mxCell id="nTK5DwB5Zi0l0sdWwo5K-50" value="" style="endArrow=none;html=1;rounded=0;entryX=0;entryY=0.5;entryDx=0;entryDy=0;" edge="1" parent="1" target="nTK5DwB5Zi0l0sdWwo5K-49">
          <mxGeometry width="50" height="50" relative="1" as="geometry">
            <mxPoint x="-620" y="-1015" as="sourcePoint" />
            <mxPoint x="-504" y="-1089" as="targetPoint" />
          </mxGeometry>
        </mxCell>
        <mxCell id="nTK5DwB5Zi0l0sdWwo5K-51" value="&amp;lt;&amp;lt;Incluir&amp;gt;&amp;gt;" style="html=1;verticalAlign=bottom;endArrow=open;dashed=1;endSize=8;curved=0;rounded=0;exitX=0.5;exitY=1;exitDx=0;exitDy=0;entryX=0.5;entryY=0;entryDx=0;entryDy=0;" edge="1" parent="1" source="nTK5DwB5Zi0l0sdWwo5K-49" target="nTK5DwB5Zi0l0sdWwo5K-48">
          <mxGeometry x="0.0622" y="-1" relative="1" as="geometry">
            <mxPoint x="-400" y="-905" as="sourcePoint" />
            <mxPoint x="-268" y="-982" as="targetPoint" />
            <mxPoint as="offset" />
          </mxGeometry>
        </mxCell>
        <mxCell id="nTK5DwB5Zi0l0sdWwo5K-52" value="consultar multas" style="ellipse;whiteSpace=wrap;html=1;" vertex="1" parent="1">
          <mxGeometry x="-503" y="-1160" width="90" height="50" as="geometry" />
        </mxCell>
        <mxCell id="nTK5DwB5Zi0l0sdWwo5K-53" value="&amp;lt;&amp;lt;Incluir&amp;gt;&amp;gt;" style="html=1;verticalAlign=bottom;endArrow=open;dashed=1;endSize=8;curved=0;rounded=0;exitX=0.5;exitY=1;exitDx=0;exitDy=0;" edge="1" parent="1">
          <mxGeometry x="0.0622" y="-1" relative="1" as="geometry">
            <mxPoint x="-459.5" y="-1110" as="sourcePoint" />
            <mxPoint x="-460" y="-1030" as="targetPoint" />
            <mxPoint as="offset" />
          </mxGeometry>
        </mxCell>
        <mxCell id="nTK5DwB5Zi0l0sdWwo5K-54" value="Usuario" style="shape=umlActor;verticalLabelPosition=bottom;verticalAlign=top;html=1;outlineConnect=0;" vertex="1" parent="1">
          <mxGeometry x="-680" y="-650" width="30" height="60" as="geometry" />
        </mxCell>
        <mxCell id="nTK5DwB5Zi0l0sdWwo5K-55" value="Validar identidad" style="ellipse;whiteSpace=wrap;html=1;" vertex="1" parent="1">
          <mxGeometry x="-520" y="-480" width="80" height="40" as="geometry" />
        </mxCell>
        <mxCell id="nTK5DwB5Zi0l0sdWwo5K-56" value="brindar informacion" style="ellipse;whiteSpace=wrap;html=1;" vertex="1" parent="1">
          <mxGeometry x="-533" y="-645" width="100" height="50" as="geometry" />
        </mxCell>
        <mxCell id="nTK5DwB5Zi0l0sdWwo5K-57" value="" style="endArrow=none;html=1;rounded=0;entryX=0;entryY=0.5;entryDx=0;entryDy=0;" edge="1" parent="1" target="nTK5DwB5Zi0l0sdWwo5K-56">
          <mxGeometry width="50" height="50" relative="1" as="geometry">
            <mxPoint x="-640" y="-625" as="sourcePoint" />
            <mxPoint x="-524" y="-699" as="targetPoint" />
          </mxGeometry>
        </mxCell>
        <mxCell id="nTK5DwB5Zi0l0sdWwo5K-58" value="&amp;lt;&amp;lt;Incluir&amp;gt;&amp;gt;" style="html=1;verticalAlign=bottom;endArrow=open;dashed=1;endSize=8;curved=0;rounded=0;exitX=0.5;exitY=1;exitDx=0;exitDy=0;entryX=0.5;entryY=0;entryDx=0;entryDy=0;" edge="1" parent="1" source="nTK5DwB5Zi0l0sdWwo5K-56" target="nTK5DwB5Zi0l0sdWwo5K-55">
          <mxGeometry x="0.0622" y="-1" relative="1" as="geometry">
            <mxPoint x="-420" y="-515" as="sourcePoint" />
            <mxPoint x="-288" y="-592" as="targetPoint" />
            <mxPoint as="offset" />
          </mxGeometry>
        </mxCell>
        <mxCell id="nTK5DwB5Zi0l0sdWwo5K-59" value="consultar multas" style="ellipse;whiteSpace=wrap;html=1;" vertex="1" parent="1">
          <mxGeometry x="-523" y="-770" width="90" height="50" as="geometry" />
        </mxCell>
        <mxCell id="nTK5DwB5Zi0l0sdWwo5K-60" value="&amp;lt;&amp;lt;Incluir&amp;gt;&amp;gt;" style="html=1;verticalAlign=bottom;endArrow=open;dashed=1;endSize=8;curved=0;rounded=0;exitX=0.5;exitY=1;exitDx=0;exitDy=0;" edge="1" parent="1">
          <mxGeometry x="0.0622" y="-1" relative="1" as="geometry">
            <mxPoint x="-479.5" y="-720" as="sourcePoint" />
            <mxPoint x="-480" y="-640" as="targetPoint" />
            <mxPoint as="offset" />
          </mxGeometry>
        </mxCell>
        <mxCell id="nTK5DwB5Zi0l0sdWwo5K-62" value="consulta historial prestamo&amp;nbsp;" style="ellipse;whiteSpace=wrap;html=1;" vertex="1" parent="1">
          <mxGeometry x="-370" y="-645" width="90" height="50" as="geometry" />
        </mxCell>
        <mxCell id="nTK5DwB5Zi0l0sdWwo5K-63" value="&amp;lt;&amp;lt;Incluir&amp;gt;&amp;gt;" style="html=1;verticalAlign=bottom;endArrow=open;dashed=1;endSize=8;curved=0;rounded=0;exitX=0;exitY=0.5;exitDx=0;exitDy=0;" edge="1" parent="1" source="nTK5DwB5Zi0l0sdWwo5K-62">
          <mxGeometry x="0.0622" y="-1" relative="1" as="geometry">
            <mxPoint x="-400" y="-621" as="sourcePoint" />
            <mxPoint x="-430" y="-620" as="targetPoint" />
            <mxPoint as="offset" />
          </mxGeometry>
        </mxCell>
        <mxCell id="nTK5DwB5Zi0l0sdWwo5K-64" value="Bibliotecario" style="shape=umlActor;verticalLabelPosition=bottom;verticalAlign=top;html=1;outlineConnect=0;" vertex="1" parent="1">
          <mxGeometry x="360" y="-580" width="30" height="60" as="geometry" />
        </mxCell>
        <mxCell id="nTK5DwB5Zi0l0sdWwo5K-65" value="modificar datos libro" style="ellipse;whiteSpace=wrap;html=1;" vertex="1" parent="1">
          <mxGeometry x="490" y="-590" width="90" height="40" as="geometry" />
        </mxCell>
        <mxCell id="nTK5DwB5Zi0l0sdWwo5K-66" value="Validar datos" style="ellipse;whiteSpace=wrap;html=1;" vertex="1" parent="1">
          <mxGeometry x="495" y="-456" width="80" height="40" as="geometry" />
        </mxCell>
        <mxCell id="nTK5DwB5Zi0l0sdWwo5K-68" value="&amp;lt;&amp;lt;Incluir&amp;gt;&amp;gt;" style="html=1;verticalAlign=bottom;endArrow=open;dashed=1;endSize=8;curved=0;rounded=0;exitX=0.5;exitY=1;exitDx=0;exitDy=0;entryX=0.39;entryY=-0.033;entryDx=0;entryDy=0;entryPerimeter=0;" edge="1" parent="1">
          <mxGeometry x="0.356" y="9" relative="1" as="geometry">
            <mxPoint x="530" y="-545" as="sourcePoint" />
            <mxPoint x="531" y="-456" as="targetPoint" />
            <mxPoint as="offset" />
          </mxGeometry>
        </mxCell>
        <mxCell id="nTK5DwB5Zi0l0sdWwo5K-70" value="" style="endArrow=none;html=1;rounded=0;" edge="1" parent="1">
          <mxGeometry width="50" height="50" relative="1" as="geometry">
            <mxPoint x="390" y="-570.63" as="sourcePoint" />
            <mxPoint x="490" y="-571" as="targetPoint" />
          </mxGeometry>
        </mxCell>
      </root>
    </mxGraphModel>
  </diagram>
</mxfile>
